<svg width="36" height="19" viewBox="0 0 36 19" fill="none" xmlns="http://www.w3.org/2000/svg">
<path d="M35.4353 0.808594C34.6687 1.55945 33.814 2.23164 32.8667 2.80001C28.6 5.36002 24.0649 6.18561 19.6521 6.98893C16.1357 7.62908 12.6968 8.2551 9.53339 9.73335C5.43127 11.6502 2.23305 14.7576 0.141602 18.1934C1.98698 15.6004 4.79826 12.7036 8.2667 11.6C11.6512 10.5231 14.8795 10.4119 18.2333 10.2963C19.1946 10.2631 20.1662 10.2296 21.1547 10.173C23.8189 9.20311 26.6109 7.89744 29.4666 6.00003C31.9281 4.36452 33.8895 2.61728 35.4353 0.808594Z" fill="url(#paint0_linear_50_206)"/>
<defs>
<linearGradient id="paint0_linear_50_206" x1="35.9999" y1="0.400032" x2="1.0666" y2="16.2" gradientUnits="userSpaceOnUse">
<stop stop-color="#F41A73"/>
<stop offset="0.399909" stop-color="#FC50A3"/>
<stop offset="0.584511" stop-color="#FE9485"/>
<stop offset="0.703104" stop-color="#FFAF88"/>
<stop offset="1" stop-color="#FFC385"/>
</linearGradient>
</defs>
</svg>
