<svg width="20" height="22" viewBox="0 0 20 22" fill="none" xmlns="http://www.w3.org/2000/svg">
<path fill-rule="evenodd" clip-rule="evenodd" d="M0.256424 9.95068C0.256424 4.62496 4.57377 0.307617 9.89949 0.307617C12.5623 0.307617 14.9731 1.38695 16.7182 3.132C15.1095 1.52336 12.9351 0.48044 10.5191 0.327242C8.89398 2.12575 7.90441 4.50947 7.90441 7.12431C7.90441 7.31936 7.90991 7.51312 7.92078 7.70545C7.29901 8.25384 6.90681 9.05646 6.90681 9.95068V10.6157H12.8922L8.5214 10.6158C9.94447 14.4968 13.672 17.2661 18.0462 17.2661C18.5546 17.2661 19.0543 17.2287 19.5425 17.1565V21.2563H12.8922V17.2661H6.90681V21.2563H0.256424V13.9409V9.95068Z" fill="white"/>
</svg>
