<svg aria-hidden="true" style="position: absolute; width: 0; height: 0; overflow: hidden;" version="1.1" xmlns="http://www.w3.org/2000/svg" xmlns:xlink="http://www.w3.org/1999/xlink">
<defs>
<symbol id="icon-chevron-left" viewBox="0 0 32 32">
<path stroke-linejoin="round" stroke-linecap="round" stroke-miterlimit="4" stroke-width="2" d="M20 24l-8-8 8-8"></path>
</symbol>
<symbol id="icon-chevron-right" viewBox="0 0 32 32">
<path stroke-linejoin="round" stroke-linecap="round" stroke-miterlimit="4" stroke-width="2" d="M12 24l8-8-8-8"></path>
</symbol>
<symbol id="icon-twitter" viewBox="0 0 32 32">
<path d="M32 6.078c-1.19 0.522-2.458 0.868-3.78 1.036 1.36-0.812 2.398-2.088 2.886-3.626-1.268 0.756-2.668 1.29-4.16 1.588-1.204-1.282-2.92-2.076-4.792-2.076-3.632 0-6.556 2.948-6.556 6.562 0 0.52 0.044 1.020 0.152 1.496-5.454-0.266-10.28-2.88-13.522-6.862-0.566 0.982-0.898 2.106-0.898 3.316 0 2.272 1.17 4.286 2.914 5.452-1.054-0.020-2.088-0.326-2.964-0.808 0 0.020 0 0.046 0 0.072 0 3.188 2.274 5.836 5.256 6.446-0.534 0.146-1.116 0.216-1.72 0.216-0.42 0-0.844-0.024-1.242-0.112 0.85 2.598 3.262 4.508 6.13 4.57-2.232 1.746-5.066 2.798-8.134 2.798-0.538 0-1.054-0.024-1.57-0.090 2.906 1.874 6.35 2.944 10.064 2.944 12.072 0 18.672-10 18.672-18.668 0-0.29-0.010-0.57-0.024-0.848 1.302-0.924 2.396-2.078 3.288-3.406z"></path>
</symbol>
<symbol id="icon-facebook" viewBox="0 0 32 32">
<path d="M17.863 27.996v-10.928h3.687l0.548-4.279h-4.235v-2.725c0-1.235 0.344-2.080 2.116-2.080h2.245v-3.815c-1.092-0.117-2.191-0.174-3.289-0.169-3.259 0-5.496 1.989-5.496 5.641v3.14h-3.663v4.279h3.671v10.936h4.416z"></path>
</symbol>
<symbol id="icon-instagram" viewBox="0 0 32 32">
<path d="M15.999 9.836c-1.635 0-3.203 0.65-4.36 1.806s-1.806 2.724-1.806 4.36c0 1.635 0.65 3.203 1.806 4.36s2.724 1.806 4.36 1.806 3.203-0.649 4.36-1.806c1.156-1.156 1.806-2.724 1.806-4.36s-0.65-3.203-1.806-4.36c-1.156-1.156-2.724-1.806-4.36-1.806zM15.999 20.005c-1.062 0-2.081-0.422-2.832-1.173s-1.173-1.77-1.173-2.832c0-1.062 0.422-2.081 1.173-2.832s1.77-1.173 2.832-1.173 2.081 0.422 2.832 1.173c0.751 0.751 1.173 1.77 1.173 2.832s-0.422 2.081-1.173 2.832c-0.751 0.751-1.77 1.173-2.832 1.173z"></path>
<path d="M22.408 11.047c0.794 0 1.437-0.644 1.437-1.437s-0.644-1.437-1.437-1.437-1.437 0.644-1.437 1.437c0 0.794 0.644 1.437 1.437 1.437z"></path>
<path d="M27.377 8.148c-0.309-0.797-0.78-1.521-1.385-2.125s-1.329-1.076-2.126-1.384c-0.933-0.35-1.918-0.54-2.915-0.56-1.284-0.056-1.691-0.072-4.947-0.072s-3.673 0-4.947 0.072c-0.995 0.019-1.98 0.209-2.912 0.56-0.797 0.308-1.522 0.779-2.126 1.384s-1.076 1.328-1.384 2.126c-0.35 0.933-0.539 1.918-0.559 2.915-0.057 1.283-0.075 1.689-0.075 4.947 0 3.256 0 3.671 0.075 4.947 0.020 0.997 0.208 1.981 0.559 2.916 0.309 0.797 0.781 1.521 1.386 2.125s1.329 1.076 2.126 1.384c0.93 0.364 1.915 0.567 2.913 0.6 1.284 0.056 1.691 0.073 4.947 0.073s3.673 0 4.947-0.073c0.996-0.020 1.982-0.209 2.915-0.559 0.797-0.309 1.521-0.781 2.125-1.385s1.076-1.328 1.385-2.125c0.351-0.933 0.539-1.917 0.559-2.915 0.057-1.283 0.075-1.689 0.075-4.947s0-3.671-0.075-4.947c-0.016-1.010-0.205-2.010-0.561-2.956zM25.753 20.857c-0.009 0.768-0.149 1.53-0.415 2.251-0.2 0.519-0.507 0.989-0.9 1.382s-0.864 0.699-1.383 0.899c-0.713 0.265-1.466 0.405-2.227 0.415-1.267 0.059-1.624 0.073-4.872 0.073-3.251 0-3.583 0-4.873-0.073-0.76-0.009-1.513-0.149-2.225-0.415-0.52-0.199-0.993-0.504-1.388-0.897s-0.703-0.864-0.904-1.384c-0.262-0.713-0.402-1.465-0.415-2.225-0.057-1.267-0.071-1.624-0.071-4.872 0-3.249 0-3.581 0.071-4.873 0.009-0.768 0.149-1.529 0.415-2.249 0.407-1.052 1.24-1.88 2.292-2.283 0.713-0.264 1.465-0.404 2.225-0.415 1.268-0.057 1.624-0.073 4.873-0.073s3.583 0 4.872 0.073c0.761 0.009 1.514 0.149 2.227 0.415 0.519 0.2 0.989 0.507 1.383 0.9s0.7 0.864 0.9 1.383c0.262 0.713 0.402 1.466 0.415 2.225 0.057 1.268 0.072 1.624 0.072 4.873 0 3.248 0 3.597-0.057 4.872h-0.015v-0.001z"></path>
</symbol>
<symbol id="icon-folder" viewBox="0 0 32 32">
<path d="M18.667 17.333h-1.333v-1.333c0-0.354-0.14-0.693-0.39-0.943s-0.589-0.39-0.943-0.39c-0.354 0-0.693 0.14-0.943 0.39s-0.39 0.589-0.39 0.943v1.333h-1.333c-0.354 0-0.693 0.14-0.943 0.39s-0.39 0.589-0.39 0.943c0 0.354 0.14 0.693 0.39 0.943s0.589 0.39 0.943 0.39h1.333v1.333c0 0.354 0.14 0.693 0.39 0.943s0.589 0.39 0.943 0.39c0.354 0 0.693-0.14 0.943-0.39s0.39-0.589 0.39-0.943v-1.333h1.333c0.354 0 0.693-0.14 0.943-0.39s0.39-0.589 0.39-0.943c0-0.354-0.14-0.693-0.39-0.943s-0.589-0.39-0.943-0.39z"></path>
<path d="M26 9.4h-9.333l-3.507-4.24c-0.124-0.153-0.281-0.277-0.458-0.362s-0.372-0.13-0.569-0.132h-6.133c-0.871-0.011-1.711 0.324-2.336 0.932s-0.983 1.437-0.997 2.308v16.187c0.014 0.871 0.373 1.701 0.997 2.308s1.465 0.942 2.336 0.932h20c0.871 0.011 1.711-0.324 2.336-0.932s0.983-1.437 0.997-2.308v-11.453c-0.014-0.871-0.373-1.701-0.997-2.309s-1.465-0.942-2.336-0.932zM26.667 24.067c-0.005 0.082-0.026 0.162-0.063 0.235s-0.087 0.139-0.149 0.192c-0.062 0.053-0.134 0.094-0.212 0.119s-0.16 0.034-0.242 0.027h-20c-0.082 0.007-0.164-0.002-0.242-0.027s-0.15-0.066-0.212-0.119c-0.062-0.053-0.113-0.119-0.149-0.192s-0.058-0.153-0.063-0.235v-16.16c0.005-0.082 0.026-0.162 0.063-0.235s0.087-0.139 0.149-0.192c0.062-0.053 0.134-0.094 0.212-0.119s0.16-0.034 0.242-0.027h5.507l3.467 4.24c0.124 0.153 0.281 0.276 0.458 0.362s0.372 0.13 0.569 0.132h10c0.082-0.007 0.164 0.002 0.242 0.027s0.15 0.066 0.212 0.119 0.113 0.119 0.149 0.192c0.036 0.073 0.058 0.153 0.063 0.235v11.427z"></path>
</symbol>
<symbol id="icon-like" viewBox="0 0 32 32">
<path fill="#fff" d="M22.667 6c-2.8 0-5.267 1.4-6.667 3.6-1.4-2.2-3.867-3.6-6.667-3.6-4.4 0-8 3.6-8 8 0 7.933 14.667 16 14.667 16s14.667-8 14.667-16c0-4.4-3.6-8-8-8z" > </path>
</symbol>
</defs>
</svg>
