<svg width="44" height="44" viewBox="0 0 44 44" fill="none" xmlns="http://www.w3.org/2000/svg">
<path d="M38.4355 18.8084C37.6689 19.5593 36.8141 20.2316 35.8668 20.8C31.6001 23.36 27.065 24.1856 22.6522 24.9889C19.1357 25.6291 15.6969 26.2551 12.5334 27.7333C5.40058 31.0664 1.00069 37.9991 0.400226 43.9988C0.400183 43.9991 0.40014 43.9993 0.400097 43.9996C0.400073 43.9985 0.400049 43.9974 0.400024 43.9963C0.400059 43.5384 0.406661 43.0744 0.421154 42.6057C0.457497 41.862 0.534385 41.038 0.661607 40.1592C1.60328 35.225 4.16441 28.7126 9.93341 24.8666C12.3756 23.2385 15.2084 21.936 18.0254 20.7397C20.5027 19.9263 22.7354 19.4202 24.8626 18.9379C28.2111 18.1787 31.2983 17.4788 34.6668 15.7333C41.7349 12.0707 43.5868 4.54426 43.089 0.116943C44.1458 5.7267 43.7186 12.6265 38.4355 18.8084Z" fill="url(#paint0_linear_50_205)"/>
<defs>
<linearGradient id="paint0_linear_50_205" x1="43.2" y1="0.0666667" x2="0.400028" y2="43.9333" gradientUnits="userSpaceOnUse">
<stop stop-color="#8E55F1"/>
<stop offset="0.140795" stop-color="#8B48DF"/>
<stop offset="0.274905" stop-color="#E04DD9"/>
<stop offset="0.492309" stop-color="#F496C8"/>
<stop offset="0.633104" stop-color="#FAD2BA"/>
<stop offset="0.856964" stop-color="#FEF7E5"/>
<stop offset="1" stop-color="#FFF5BF"/>
</linearGradient>
</defs>
</svg>
